<?xml version="1.0" encoding="UTF-8"?><svg id="Capa_2" xmlns="http://www.w3.org/2000/svg" viewBox="0 0 116.65 116.65"><defs><style>.cls-1,.cls-2{stroke-width:0px;}.cls-2{fill:#dcff3c;}</style></defs><g id="Capa_1-2"><rect class="cls-1" width="116.65" height="116.65" rx="31.44" ry="31.44"/><path class="cls-2" d="M87.8,70.53v-24.42c0-2.98-1.59-5.73-4.17-7.22l-21.14-12.21c-2.58-1.49-5.75-1.49-8.33,0l-21.14,12.21c-2.58,1.49-4.17,4.24-4.17,7.22v24.42c0,2.98,1.59,5.73,4.17,7.22l21.14,12.21c2.58,1.49,5.75,1.49,8.33,0l21.14-12.21c2.58-1.49,4.17-4.24,4.17-7.22Z"/><path class="cls-1" d="M66.13,37.54l-18.44,17.48c-.61.58-.53,1.58.18,2.05l4.02,2.67c1.28.85,1.9,2.4,1.55,3.9l-3.54,15.27c-.08.33.32.55.56.33l18.14-16.8c.86-.79.75-2.18-.22-2.84l-2.31-1.56c-1.99-1.34-2.95-3.76-2.43-6.1l3.13-14.02c.08-.37-.36-.62-.64-.36Z"/></g></svg>